Title                            : X-Men: First Class
Year                             : 2011
Genre                            : Action | Adventure | Drama
iMDB URL                         : http://www.imdb.com/title/tt1270798/

Complete name                    : X-Men.First.Class.2011.BRRIP.720P.H264-ZEKTORM.mp4
Format                           : MPEG-4
Format profile                   : Base Media
Codec ID                         : isom
File size                        : 2.54 GiB
Duration                         : 2h 11mn
Overall bit rate                 : 2760 Kbps
Subtitles                        : English (Format: srt)

Video
ID                               : 1
Format                           : AVC
Format/Info                      : Advanced Video Codec
Format profile                   : High@L4.0
Format settings, CABAC           : Yes
Format settings, ReFrames        : 12 frames
Codec ID                         : avc1
Codec ID/Info                    : Advanced Video Coding
Duration                         : 2h 11mn
Bit rate mode                    : Variable
Bit rate                         : 2536 Kbps
Width                            : 1280 pixels
Height                           : 544 pixels
Display aspect ratio             : 2.35
Frame rate mode                  : Constant
Frame rate                       : 23.976 fps
Resolution                       : 24 bits
Colorimetry                      : 4:2:0
Scan type                        : Progressive
Bits/(Pixel*Frame)               : 0.152
Stream size                      : 2.33 GiB (92%)
Title                            : Video
Writing library                  : x264

Audio
ID                               : 2
Format                           : AAC
Format/Info                      : Advanced Audio Codec
Format version                   : Version 4
Format profile                   : LC
Format settings, SBR             : Yes
Format settings, PS              : No
Codec ID                         : 40
Duration                         : 2h 11mn
Bit rate mode                    : Variable
Bit rate                         : 221 Kbps
Maximum bit rate                 : 272 Kbps
Channel(s)                       : 6 channels
Channel positions                : Front: L C R, Rear: L R, LFE
Sampling rate                    : 48.0 KHz
Resolution                       : 16 bits
Stream size                      : 208 MiB (8%)
Title                            : English
Language                         : English


Screenshots:

[img]http://img714.imageshack.us/img714/3130/snapxm1.png[/img]

[img]http://img69.imageshack.us/img69/1291/snapxm2.png[/img]

[img]http://img839.imageshack.us/img839/4179/snapxm3.png[/img]

[img]http://img194.imageshack.us/img194/3033/snapxm4.png[/img]

[img]http://img833.imageshack.us/img833/7018/snapxm5.png[/img]
